<svg xmlns="http://www.w3.org/2000/svg" viewBox="0 0 64 64" id="note">
  <defs>
    <linearGradient id="a" x1="12.409" x2="51.591" y1="32" y2="32" gradientUnits="userSpaceOnUse">
      <stop offset="0" stop-color="#ffa68d"></stop>
      <stop offset="1" stop-color="#fd3a84"></stop>
    </linearGradient>
  </defs>
  <path fill="url(#a)" d="M47.4502,7.708H43.93164V6.51416a2.51416,2.51416,0,1,0-5.02832,0V7.708H34.51074V6.51416a2.51416,2.51416,0,1,0-5.02832,0V7.708H25.08984V6.51416a2.51432,2.51432,0,0,0-5.02831.00008V7.708H16.5498a4.14514,4.14514,0,0,0-4.14062,4.14013V55.85986A4.14514,4.14514,0,0,0,16.5498,60H47.4502a4.14514,4.14514,0,0,0,4.14062-4.14014V11.84814A4.14514,4.14514,0,0,0,47.4502,7.708ZM40.90332,6.51416a.51426.51426,0,0,1,1.02832,0c0,1.17153-.00005,3.53219,0,4.71043a.51426.51426,0,0,1-1.02832,0Zm-9.4209,0a.51426.51426,0,0,1,1.02832,0c0,1.17153-.00005,3.53219,0,4.71043a.51426.51426,0,0,1-1.02832,0Zm-9.4209,0a.51426.51426,0,0,1,1.02832,0c0,1.17439-.00006,3.5293,0,4.71043a.51425.51425,0,0,1-1.02831,0Zm27.5293,49.3457A2.14253,2.14253,0,0,1,47.4502,58H16.5498a2.11763,2.11763,0,0,1-2.14062-2.14014V11.84814A2.11763,2.11763,0,0,1,16.5498,9.708h3.51172v1.5166a2.51431,2.51431,0,0,0,5.02832-.00007V9.708h4.39258v1.5166a2.51416,2.51416,0,1,0,5.02832,0V9.708h4.39258v1.5166a2.51416,2.51416,0,1,0,5.02832,0V9.708H47.4502a2.14253,2.14253,0,0,1,2.14062,2.14013ZM25.68262,18.66553h12.6347a1.00019,1.00019,0,0,1,.00006,2H25.68262A1.00019,1.00019,0,0,1,25.68262,18.66553Zm18.291,10.18261H19.7862a1.0002,1.0002,0,0,1-.00007-2h24.1875A1.0002,1.0002,0,0,1,43.97363,28.84814Zm0,6H19.7862a1.0002,1.0002,0,0,1-.00007-2h24.1875A1.0002,1.0002,0,0,1,43.97363,34.84814Zm0,6H19.7862a1.0002,1.0002,0,0,1-.00007-2h24.1875A1.0002,1.0002,0,0,1,43.97363,40.84814ZM43.6123,52.79541H35.79108a1.00019,1.00019,0,0,1-.00006-2H43.6123A1.00019,1.00019,0,0,1,43.6123,52.79541Z"></path>
</svg>
